<?xml version="1.0" ?><!DOCTYPE svg  PUBLIC '-//W3C//DTD SVG 1.1//EN'  'http://www.w3.org/Graphics/SVG/1.1/DTD/svg11.dtd' [
	<!ENTITY stroke_color "#666666">
	<!ENTITY fill_color "#ffffff">

	<!ENTITY stroke_opacity "1">
	<!ENTITY fill_opacity "1">
]><svg height="45" id="svg2" inkscape:output_extension="org.inkscape.output.svg.inkscape" inkscape:version="0.45.1" sodipodi:docbase="/home/pgf/src/pdom/gps/roadmap/ndcvs/sugar/activity" sodipodi:docname="simpleRoadMap.svg" sodipodi:version="0.32" version="1.0" width="45" xmlns="http://www.w3.org/2000/svg" xmlns:cc="http://web.resource.org/cc/" xmlns:dc="http://purl.org/dc/elements/1.1/" xmlns:inkscape="http://www.inkscape.org/namespaces/inkscape" xmlns:rdf="http://www.w3.org/1999/02/22-rdf-syntax-ns#" xmlns:sodipodi="http://sodipodi.sourceforge.net/DTD/sodipodi-0.dtd" xmlns:svg="http://www.w3.org/2000/svg">
  <metadata id="metadata16">
    <rdf:RDF>
      <cc:Work rdf:about="">
        <dc:format>image/svg+xml</dc:format>
        <dc:type rdf:resource="http://purl.org/dc/dcmitype/StillImage"/>
      </cc:Work>
    </rdf:RDF>
  </metadata>
  <sodipodi:namedview bordercolor="#666666" borderopacity="1.0" gridtolerance="10.0" guidetolerance="10.0" id="base" inkscape:pageopacity="0.0" inkscape:pageshadow="2" inkscape:window-height="480" inkscape:window-width="640" objecttolerance="10.0" pagecolor="#ffffff"/>
  <defs id="defs13"/>
  <rect height="14.11365" id="rect3138" ry="0.43426618" style="fill:&fill_color;;fill-opacity:&fill_opacity;;fill-rule:nonzero;stroke:&stroke_color;;stroke-width:1.934;stroke-linejoin:round;stroke-miterlimit:4;stroke-dasharray:none;stroke-dashoffset:8.1;stroke-opacity:&stroke_opacity;;" width="38.637459" x="2.5860298" y="1.6336505"/>
  <path d="M 8.3238071,6.2766696 C 8.5788169,6.5294076 8.773341,6.8310703 8.9704146,7.1279018 C 9.1289161,7.4262905 9.1756045,7.7579107 9.2351331,8.0849879 C 9.352776,8.312958 9.3864103,8.5637956 9.4365874,8.8109951 C 9.4662889,9.0618068 9.4738888,9.3149246 9.4858617,9.5668235 C 9.5566343,9.8006566 9.6208224,10.035716 9.681626,10.272401 C 9.7823823,10.517414 9.9331204,10.739748 10.066986,10.968532 C 10.165519,11.151962 10.283482,11.325677 10.38941,11.502104 L 8.8751293,12.406379 C 8.7657324,12.219988 8.6495328,12.035741 8.5434482,11.845895 C 8.4030489,11.604479 8.2457724,11.370773 8.1352532,11.114359 C 8.0734693,10.869223 8.0107105,10.62459 7.9267821,10.385522 C 7.9114891,10.134942 7.897353,9.8826516 7.880982,9.631194 C 7.8360001,9.3853526 7.8040448,9.140276 7.6837374,8.9154249 C 7.6348597,8.6056493 7.6019298,8.289419 7.4566863,8.0054537 C 7.2625761,7.7227569 7.0859997,7.4221374 6.8185944,7.1990651 L 8.3238071,6.2766696 z " id="path3142" style="fill:none;fill-opacity:0;fill-rule:nonzero;stroke:&stroke_color;;stroke-width:1.93400002;stroke-linejoin:round;stroke-miterlimit:4;stroke-dasharray:none;stroke-dashoffset:8.1;stroke-opacity:&stroke_opacity;;"/>
  <path d="M 14.235712,6.0959984 C 14.532727,6.0020396 14.841547,5.9718826 15.1483,5.9314483 C 15.41655,5.8687536 15.622573,5.9787057 15.867204,6.0572302 C 16.131376,6.1473187 16.370324,6.2903897 16.611884,6.419578 C 16.733462,6.6069886 16.872176,6.7895447 16.99619,6.9719752 C 17.158236,7.1448355 17.301157,7.3362051 17.450646,7.5205138 C 17.582045,7.7231405 17.735218,7.9058649 17.886331,8.0929312 C 18.053613,8.1969594 18.098701,8.3681662 18.187962,8.5187715 C 18.022109,9.1741949 16.898837,9.4271585 16.235212,9.7152387 C 15.998283,9.7889457 15.750735,9.7895774 15.505784,9.8030643 C 15.26559,9.807572 15.025338,9.8054686 14.78512,9.8048055 C 14.540211,9.8481082 14.320576,9.9687317 14.096569,10.067082 C 13.503625,10.332567 12.618743,10.886713 15.174352,9.4230854 L 13.536177,10.077259 C 14.195435,9.685598 14.78941,9.279243 15.470003,8.9684193 C 15.711044,8.8800063 15.947576,8.7666979 16.210565,8.7697514 C 16.44901,8.7696466 16.687616,8.7724816 16.925879,8.7610751 C 17.160539,8.7305723 17.401149,8.7317224 17.620354,8.6264761 C 18.751258,8.0533089 16.50945,9.1237688 16.603265,9.3181401 C 16.561198,9.2600681 16.484763,9.0550872 16.365812,8.990347 C 16.221776,8.804968 16.074041,8.6242939 15.945194,8.4274921 C 15.796216,8.2482886 15.652465,8.0635797 15.493358,7.8936445 C 15.36695,7.7197738 15.244395,7.5425301 15.124438,7.3654553 C 14.892572,7.250512 14.662779,7.1219613 14.411575,7.0479911 C 14.180029,6.9957919 13.98733,6.9067016 13.739312,6.979269 C 13.435787,7.0291747 13.128971,7.0669728 12.839932,7.1803743 L 14.235712,6.0959984 z " id="path3144" style="fill:none;fill-opacity:0;fill-rule:nonzero;stroke:&stroke_color;;stroke-width:1.93400002;stroke-linejoin:round;stroke-miterlimit:4;stroke-dasharray:none;stroke-dashoffset:8.1;stroke-opacity:&stroke_opacity;;"/>
  <path d="M 19.620775,12.645542 C 19.937459,12.436631 20.230272,12.194666 20.533389,11.967302 C 21.1622,11.443237 21.93724,11.092406 22.63318,10.703302 C 22.339941,10.951143 21.305611,11.454107 21.594545,11.20126 C 22.165591,10.670729 22.927457,10.359829 23.584688,9.9908861 C 23.869966,9.9915268 24.105715,9.8608599 24.359326,9.7545018 C 24.697872,9.6274566 25.035319,9.4977752 25.369666,9.3593459 C 26.201376,9.0341334 28.565857,7.6315138 24.826466,9.7277728 C 25.054917,9.5965635 25.253469,9.4279687 25.462065,9.2706405 C 26.691189,8.4719115 28.693811,7.3875494 26.023246,8.9093578 C 26.082081,8.8830521 26.10297,8.8221472 26.142833,8.7785419 L 27.752794,8.0529486 C 27.721858,8.1182335 27.713976,8.1944627 27.659987,8.2488034 C 27.635191,8.2750418 27.610395,8.3012802 27.5856,8.3275185 C 27.050565,8.635718 26.51553,8.9439175 25.980495,9.2521169 C 25.602141,9.4549224 27.464017,8.3887205 27.103654,8.622001 C 26.894858,8.7875907 26.690464,8.9563066 26.45385,9.0859179 C 25.651842,9.5632546 24.880481,10.131208 23.989742,10.440474 C 23.656456,10.576035 23.318894,10.700886 22.989492,10.845219 C 22.725773,10.932087 22.466401,11.023421 22.193256,11.078439 C 22.527917,10.880821 23.528083,10.2991 23.234498,10.553773 C 22.655784,11.068524 21.977599,11.514203 21.242602,11.790489 C 25.317614,9.3856005 22.575211,10.910217 22.163746,11.330643 C 21.852548,11.539842 21.563679,11.775651 21.264392,12.002441 L 19.620775,12.645542 z " id="path3146" style="fill:none;fill-opacity:0;fill-rule:nonzero;stroke:&stroke_color;;stroke-width:1.93400002;stroke-linejoin:round;stroke-miterlimit:4;stroke-dasharray:none;stroke-dashoffset:8.1;stroke-opacity:&stroke_opacity;;"/>
  <path d="M 32.138151,5.2953919 C 32.410166,5.4552967 32.705285,5.5775863 32.991026,5.7067304 C 33.187281,5.8293052 33.392752,5.9366946 33.592478,6.0516792 C 33.86967,6.0647062 33.962225,6.2431633 34.140065,6.3944098 C 34.211,6.5860821 34.240405,6.7962591 34.275475,6.9947378 C 34.392391,7.1671313 34.404572,7.3699783 34.451754,7.5642908 C 34.513336,7.7293742 34.581454,7.8980184 34.651481,8.0613831 C 34.74426,8.2789534 34.816417,8.5017851 34.888231,8.7266417 C 34.929593,8.9973628 35.103679,9.1559878 35.271861,9.3453319 C 35.419812,9.5086464 35.598806,9.6269463 35.773161,9.7587114 C 35.9708,9.8482485 36.135907,9.9820757 36.310137,10.10762 L 34.822596,11.060206 C 34.646245,10.935416 34.479601,10.801989 34.285433,10.703578 C 34.111822,10.565295 33.927879,10.443385 33.778774,10.275707 C 33.594323,10.055304 33.394804,9.861958 33.337786,9.5624402 C 33.263591,9.3418809 33.208262,9.1150949 33.100275,8.9058812 C 33.025549,8.7360443 32.959327,8.5564564 32.889973,8.3847566 C 32.851577,8.2041804 32.845853,8.0187318 32.734446,7.8602069 C 32.696744,7.6697329 32.642943,7.4755128 32.611009,7.2807561 C 32.461751,7.1966535 32.328147,7.0345718 32.121551,7.0208395 C 31.91908,6.9022996 31.713219,6.7887251 31.514597,6.6633474 C 31.223467,6.5344257 30.926778,6.4102528 30.651778,6.2471007 L 32.138151,5.2953919 z " id="path3148" style="fill:none;fill-opacity:0;fill-rule:nonzero;stroke:&stroke_color;;stroke-width:1.93400002;stroke-linejoin:round;stroke-miterlimit:4;stroke-dasharray:none;stroke-dashoffset:8.1;stroke-opacity:&stroke_opacity;;"/>
  <rect height="27.546658" id="rect3156" rx="1.2479817" ry="0" style="fill:none;fill-opacity:0;fill-rule:nonzero;stroke:&stroke_color;;stroke-width:1.94042726;stroke-linejoin:round;stroke-miterlimit:4;stroke-dasharray:none;stroke-dashoffset:8.1;stroke-opacity:&stroke_opacity;;" transform="matrix(0.9982626,-5.8921749e-2,0.2040576,0.9789589,0,0)" width="3.4035833" x="31.123331" y="19.333595"/>
  <path d="M 24.478322,4.6840136 C 24.467738,4.98681 24.471974,5.2898858 24.472816,5.5928029 C 24.477445,5.7975 24.596308,5.9615069 24.684204,6.1373777 C 24.808488,6.3574042 24.919583,6.5848779 25.037473,6.8082052 C 25.142461,7.0744239 25.333979,7.2821058 25.510098,7.5010135 C 25.686137,7.6979803 25.788677,7.943424 25.904696,8.1754459 C 25.982689,8.3380285 26.115859,8.4511072 26.225816,8.5887703 C 26.385568,8.7047409 26.51541,8.8556627 26.658028,8.9891471 C 26.781794,9.1363168 26.960466,9.2211755 27.124454,9.3138754 C 27.318704,9.4080413 27.457295,9.5585086 27.610057,9.7023819 C 27.708984,9.7950385 27.793816,9.9001338 27.885562,9.9988655 L 26.367366,10.902118 C 26.277845,10.804893 26.187191,10.708176 26.098332,10.60993 C 25.945747,10.491767 25.804507,10.35288 25.630308,10.258386 C 25.454182,10.152382 25.262962,10.074148 25.144699,9.8939823 C 24.996597,9.7653104 24.847189,9.6297383 24.705674,9.4926717 C 24.594835,9.3514964 24.457147,9.2336838 24.38081,9.0662522 C 24.272149,8.8389569 24.176815,8.5996355 24.008406,8.406887 C 23.822046,8.1750282 23.619429,7.9543657 23.505477,7.6740384 C 23.39064,7.4576706 23.282682,7.2367743 23.16051,7.0241182 C 23.056072,6.8193983 22.918825,6.6295222 22.908136,6.390047 C 22.90897,6.0890017 22.9133,5.7877884 22.902631,5.4868681 L 24.478322,4.6840136 z " id="path3179" style="fill:none;fill-opacity:0;fill-rule:nonzero;stroke:&stroke_color;;stroke-width:1.93400002;stroke-linejoin:round;stroke-miterlimit:4;stroke-dasharray:none;stroke-dashoffset:8.1;stroke-opacity:&stroke_opacity;;"/>
  <path d="M 12.802968,10.916021 L 14.72732,11.059628 L 16.190099,11.222675 L 13.4291,10.977106 L 12.802968,10.916021 z " id="path7245" style="color:#010101"/>
  <path d="M 7.5005297,44.642604 C 7.5005297,44.642604 10.458525,44.37633 7.5835072,31.178518 C 5.8080522,23.006161 12.659934,18.45531 20.66637,16.096548" id="path3190" style="color:#010101;fill:none;fill-opacity:0;fill-rule:nonzero;stroke:&stroke_color;;stroke-width:1.70000005;stroke-linecap:round;stroke-miterlimit:4;stroke-dasharray:none;stroke-opacity:&stroke_opacity;;"/>
  <path d="M 24.78118,44.375531 C 24.78118,44.375531 26.145215,42.219535 24.964948,38.467111 C 24.31672,36.4062 25.045411,38.512838 21.981656,32.325895 C 18.562711,25.421682 21.53257,20.88734 25.616307,17.849583 C 26.63724,17.090144 27.274109,16.644179 28.215586,15.990453" id="path3195" style="color:#010101;fill:none;fill-opacity:0;fill-rule:nonzero;stroke:&stroke_color;;stroke-width:1.70000005;stroke-linecap:round;stroke-miterlimit:4;stroke-dasharray:none;stroke-opacity:&stroke_opacity;;"/>
  <path d="M 15.776147,45.089864 C 15.776147,45.089864 16.886406,42.317466 16.874814,40.319062 C 16.8568,37.451413 16.548807,37.155454 14.65947,31.383001 C 12.809067,25.729503 15.033411,23.653596 17.415878,20.911991 C 19.798347,18.170387 23.433356,16.37067 27.216732,16.343884" id="path3215" style="color:#010101;fill:none;fill-opacity:0;fill-rule:nonzero;stroke:&stroke_color;;stroke-width:1.70000005;stroke-miterlimit:4;stroke-dasharray:5.10000014, 5.10000014;stroke-dashoffset:3.4000001;stroke-opacity:&stroke_opacity;;"/>
</svg>