<?xml version="1.0" ?><!DOCTYPE svg  PUBLIC '-//W3C//DTD SVG 20010904//EN'  'http://www.w3.org/TR/2001/REC-SVG-20010904/DTD/svg10.dtd' [
	<!ENTITY stroke_color "#666666">
	<!ENTITY fill_color "#000000">
	<!ENTITY fill_opacity "1">
]><svg height="468pt" preserveAspectRatio="xMidYMid meet" version="1.0" viewBox="0 0 468 468" width="468pt" xmlns="http://www.w3.org/2000/svg">
<metadata>
Created by potrace 1.8, written by Peter Selinger 2001-2007
</metadata>
<g fill="&fill_color;" stroke="&stroke_color;" style="fill-opacity:&fill_opacity;;" transform="translate(0,468) scale(0.731250,-0.731250)">
<path d="M0 320 l0 -320 58 0 c56 0 59 1 109 52 66 68 87 110 86 174 0 61 -22 109 -71 160 l-37 38 33 -23 c117 -81 126 -246 21 -366 l-31 -35 53 0 c46 0 57 4 86 32 37 36 53 32 27 -7 l-17 -26 54 3 c54 3 54 3 81 53 30 54 36 120 17 158 -7 12 -29 41 -50 64 -22 24 -39 47 -39 53 0 21 19 47 47 65 l28 18 -28 -30 c-15 -16 -27 -38 -27 -49 0 -11 20 -40 45 -64 56 -55 71 -101 55 -173 -6 -29 -17 -62 -26 -74 l-14 -23 90 0 90 0 0 320 0 320 -320 0 -320 0 0 -320z m630 271 c0 -36 -2 -39 -37 -44 -21 -4 -49 -19 -68 -37 l-31 -30 -90 31 c-54 18 -119 33 -166 36 -70 5 -82 3 -133 -22 -71 -34 -85 -26 -85 51 l0 54 305 0 305 0 0 -39z m-381 -166 l54 -26 44 21 c64 30 75 24 12 -8 l-54 -27 -55 26 c-30 15 -62 29 -70 32 -13 5 -13 5 0 6 8 0 39 -11 69 -24z m208 19 c-3 -3 -12 -4 -19 -1 -8 3 -5 6 6 6 11 1 17 -2 13 -5z m-129 -139 c-3 -3 -9 2 -12 12 -6 14 -5 15 5 6 7 -7 10 -15 7 -18z m27 -35 c3 -5 1 -10 -4 -10 -6 0 -11 5 -11 10 0 6 2 10 4 10 3 0 8 -4 11 -10z m35 -72 c0 -5 -4 -8 -10 -8 -5 0 -10 10 -10 23 0 18 2 19 10 7 5 -8 10 -18 10 -22z m-7 -68 c-3 -11 -9 -20 -14 -20 -10 0 -12 24 -2 33 13 13 21 7 16 -13z"/>
</g>
</svg>