<?xml version="1.0" encoding="UTF-8" standalone="no"?>
<svg
   xmlns:dc="http://purl.org/dc/elements/1.1/"
   xmlns:cc="http://creativecommons.org/ns#"
   xmlns:rdf="http://www.w3.org/1999/02/22-rdf-syntax-ns#"
   xmlns:svg="http://www.w3.org/2000/svg"
   xmlns="http://www.w3.org/2000/svg"
   xmlns:sodipodi="http://sodipodi.sourceforge.net/DTD/sodipodi-0.dtd"
   xmlns:inkscape="http://www.inkscape.org/namespaces/inkscape"
   height="468pt"
   id="svg2"
   inkscape:output_extension="org.inkscape.output.svg.inkscape"
   inkscape:version="0.46"
   preserveAspectRatio="xMidYMid meet"
   sodipodi:docname="x.svg"
   sodipodi:version="0.32"
   version="1.0"
   viewBox="0 0 468 468"
   width="468pt">
  <defs
     id="defs11">
    <inkscape:perspective
       id="perspective13"
       inkscape:persp3d-origin="292.5 : 195 : 1"
       inkscape:vp_x="0 : 292.5 : 1"
       inkscape:vp_y="0 : 1000 : 0"
       inkscape:vp_z="585 : 292.5 : 1"
       sodipodi:type="inkscape:persp3d" />
  </defs>
  <sodipodi:namedview
     bordercolor="#666666"
     borderopacity="1.0"
     gridtolerance="10.0"
     guidetolerance="10.0"
     id="base"
     inkscape:current-layer="svg2"
     inkscape:cx="267.31022"
     inkscape:cy="178.84605"
     inkscape:pageopacity="0.0"
     inkscape:pageshadow="2"
     inkscape:window-height="672"
     inkscape:window-width="737"
     inkscape:window-x="53"
     inkscape:window-y="9"
     inkscape:zoom="1"
     objecttolerance="10.0"
     pagecolor="#ffffff"
     showgrid="false" />
  <metadata
     id="metadata4">
Created by potrace 1.8, written by Peter Selinger 2001-2007
<rdf:RDF>
  <cc:Work
     rdf:about="">
    <dc:format>image/svg+xml</dc:format>
    <dc:type
       rdf:resource="http://purl.org/dc/dcmitype/StillImage" />
  </cc:Work>
</rdf:RDF>
</metadata>
  <path
     style="fill:#00aa00;fill-opacity:1;stroke:none"
     id="path8"
     d="M 0,234 L 0,468 L 42.4125,468 C 83.3625,468 85.55625,467.26875 122.11875,429.975 C 170.38125,380.25 185.7375,349.5375 185.00625,302.7375 C 185.00625,258.13125 168.91875,223.03125 133.0875,185.7375 L 106.03125,157.95 L 130.1625,174.76875 C 215.71875,234 222.3,354.65625 145.51875,442.40625 L 122.85,468 L 161.60625,468 C 195.24375,468 203.2875,465.075 224.49375,444.6 C 251.55,418.275 263.25,421.2 244.2375,449.71875 L 231.80625,468.73125 L 271.29375,466.5375 C 310.78125,464.34375 310.78125,464.34375 330.525,427.78125 C 352.4625,388.29375 356.85,340.03125 342.95625,312.24375 C 337.8375,303.46875 321.75,282.2625 306.39375,265.44375 C 290.30625,247.89375 277.875,231.075 277.875,226.6875 C 277.875,211.33125 291.76875,192.31875 312.24375,179.15625 L 332.71875,165.99375 L 312.24375,187.93125 C 301.275,199.63125 292.5,215.71875 292.5,223.7625 C 292.5,231.80625 307.125,253.0125 325.40625,270.5625 C 366.35625,310.78125 377.325,344.41875 365.625,397.06875 C 361.2375,418.275 353.19375,442.40625 346.6125,451.18125 L 336.375,468 L 402.1875,468 L 468,468 L 468,234 L 468,2.8421709e-14 L 234,2.8421709e-14 L 0,2.8421709e-14 L 0,234 z M 460.6875,35.83125 C 460.6875,62.15625 459.225,64.35 433.63125,68.00625 C 418.275,70.93125 397.8,81.9 383.90625,95.0625 L 361.2375,117 L 295.425,94.33125 C 255.9375,81.16875 208.40625,70.2 174.0375,68.00625 C 122.85,64.35 114.075,65.8125 76.78125,84.09375 C 24.8625,108.95625 14.625,103.10625 14.625,46.8 L 14.625,7.3125 L 237.65625,7.3125 L 460.6875,7.3125 L 460.6875,35.83125 z M 182.08125,157.21875 L 221.56875,176.23125 L 253.74375,160.875 C 300.54375,138.9375 308.5875,143.325 262.51875,166.725 L 223.03125,186.46875 L 182.8125,167.45625 C 160.875,156.4875 137.475,146.25 131.625,144.05625 C 122.11875,140.4 122.11875,140.4 131.625,139.66875 C 137.475,139.66875 160.14375,147.7125 182.08125,157.21875 z M 334.18125,143.325 C 331.9875,145.51875 325.40625,146.25 320.2875,144.05625 C 314.4375,141.8625 316.63125,139.66875 324.675,139.66875 C 332.71875,138.9375 337.10625,141.13125 334.18125,143.325 z M 239.85,244.96875 C 237.65625,247.1625 233.26875,243.50625 231.075,236.19375 C 226.6875,225.95625 227.41875,225.225 234.73125,231.80625 C 239.85,236.925 242.04375,242.775 239.85,244.96875 z M 259.59375,270.5625 C 261.7875,274.21875 260.325,277.875 256.66875,277.875 C 252.28125,277.875 248.625,274.21875 248.625,270.5625 C 248.625,266.175 250.0875,263.25 251.55,263.25 C 253.74375,263.25 257.4,266.175 259.59375,270.5625 z M 285.1875,323.2125 C 285.1875,326.86875 282.2625,329.0625 277.875,329.0625 C 274.21875,329.0625 270.5625,321.75 270.5625,312.24375 C 270.5625,299.08125 272.025,298.35 277.875,307.125 C 281.53125,312.975 285.1875,320.2875 285.1875,323.2125 z M 280.06875,372.9375 C 277.875,380.98125 273.4875,387.5625 269.83125,387.5625 C 262.51875,387.5625 261.05625,370.0125 268.36875,363.43125 C 277.875,353.925 283.725,358.3125 280.06875,372.9375 z" />
  <path
     d="M 0.5,467.4 L 467.6,467.6 L 467.6,0.39999926 L 0.4,0.39999926 L 0.5,467.4 z"
     id="path3239"
     style="fill:none;fill-rule:evenodd;stroke:#00aa00;stroke-width:0.36;stroke-linecap:butt;stroke-linejoin:miter;stroke-opacity:1;stroke-miterlimit:4;stroke-dasharray:none" />
  <path
     style="opacity:1;fill:#ff0505;fill-opacity:1;fill-rule:evenodd;stroke:none;stroke-width:0.44999999;stroke-linecap:round;stroke-linejoin:round;stroke-miterlimit:4;stroke-dasharray:none;stroke-dashoffset:0;stroke-opacity:1"
     d="M 359.46102,582.23365 C 379.35171,580.23388 387.13309,576.60947 395.29698,565.54198 C 406.36497,550.53753 422.06046,519.86568 428.35161,500.94724 C 441.1891,462.34308 442.32469,421.38022 431.28775,395.03774 C 426.86987,384.49333 408.71928,360.47994 382.38752,330.3423 C 366.38765,312.0299 359.82369,303.8864 353.61473,294.64581 C 347.5634,285.63976 347.2275,284.34594 348.88154,276.41315 C 352.75951,257.81423 368.25428,239.28358 394.41185,221.96207 C 401.64765,217.17054 408.33129,212.96563 409.26442,212.61784 C 410.19754,212.27004 406.23602,217.06417 400.46102,223.27147 C 381.76274,243.36944 372.29148,256.62723 367.80816,268.97862 C 363.71566,280.25326 364.88386,285.54937 374.81094,300.72704 C 382.94799,313.16792 390.8393,322.60247 407.63024,339.96455 C 429.76493,362.85217 439.62938,375.73086 448.36839,393.15105 C 457.78195,411.91586 461.62912,428.95278 461.62438,451.85395 C 461.62089,468.8523 460.0608,480.70787 454.88675,503.05599 C 448.04983,532.58663 441.22956,550.36619 429.29606,569.76776 L 420.96102,583.31892 L 385.96102,583.20356 C 360.04402,583.11813 353.16689,582.86642 359.46102,582.23363 L 359.46102,582.23365 z"
     id="path2397"
     transform="scale(0.8,0.8)" />
  <path
     style="opacity:1;fill:#ff0505;fill-opacity:1;fill-rule:evenodd;stroke:none;stroke-width:0.44999999;stroke-linecap:round;stroke-linejoin:round;stroke-miterlimit:4;stroke-dasharray:none;stroke-dashoffset:0;stroke-opacity:1"
     d="M 243.46102,581.456 C 256.18063,577.31535 262.16356,573.2475 281.85146,555.35395 C 300.40949,538.4873 311.49347,531.47614 314.99972,534.38607 C 318.46063,537.25839 314.98427,545.87662 302.50813,565.35395 C 297.39976,573.32895 292.71614,580.64145 292.10006,581.60395 C 291.07799,583.20075 288.65916,583.34924 264.47047,583.30017 L 237.96102,583.24641 L 243.46102,581.456 z"
     id="path2399"
     transform="scale(0.8,0.8)" />
  <path
     style="opacity:1;fill:#ff0505;fill-opacity:1;fill-rule:evenodd;stroke:none;stroke-width:0.44999999;stroke-linecap:round;stroke-linejoin:round;stroke-miterlimit:4;stroke-dasharray:none;stroke-dashoffset:0;stroke-opacity:1"
     d="M 333.73562,481.91373 C 331.24091,479.76787 330.9533,478.81644 330.64828,471.70069 C 330.35956,464.96524 330.64921,463.21664 332.69347,459.35395 C 334.99439,455.00637 343.04326,448.35395 346.00261,448.35395 C 352.96529,448.35395 351.50648,467.69605 343.70997,478.75221 C 339.95524,484.07675 337.24791,484.93487 333.73562,481.91373 z"
     id="path2401"
     transform="scale(0.8,0.8)" />
  <path
     style="opacity:1;fill:#ff0505;fill-opacity:1;fill-rule:evenodd;stroke:none;stroke-width:0.44999999;stroke-linecap:round;stroke-linejoin:round;stroke-miterlimit:4;stroke-dasharray:none;stroke-dashoffset:0;stroke-opacity:1"
     d="M 344.15414,408.56736 C 340.55683,404.59236 339.13622,399.06173 339.04773,388.68736 C 339.00002,383.09575 339.34347,378.14574 339.81091,377.68736 C 342.0736,375.46854 355.50576,397.22262 355.68111,403.39002 C 355.72755,405.02349 354.95229,407.25861 353.9583,408.35696 C 351.67955,410.87496 346.34609,410.98943 344.15415,408.56735 L 344.15414,408.56736 z"
     id="path2403"
     transform="scale(0.8,0.8)" />
  <path
     style="opacity:1;fill:#ff0505;fill-opacity:1;fill-rule:evenodd;stroke:none;stroke-width:0.44999999;stroke-linecap:round;stroke-linejoin:round;stroke-miterlimit:4;stroke-dasharray:none;stroke-dashoffset:0;stroke-opacity:1"
     d="M 313.99325,343.61347 C 311.58093,341.20113 311.30822,340.29602 311.71576,336.0546 C 312.2967,330.00845 313.32916,328.88112 316.8262,330.47448 C 319.71402,331.79024 325.46102,339.67777 325.46102,342.32539 C 325.46102,347.05049 318.24122,347.86142 313.99326,343.61346 L 313.99325,343.61347 z"
     id="path2405"
     transform="scale(0.8,0.8)" />
  <path
     style="opacity:1;fill:#ff0505;fill-opacity:1;fill-rule:evenodd;stroke:none;stroke-width:0.44999999;stroke-linecap:round;stroke-linejoin:round;stroke-miterlimit:4;stroke-dasharray:none;stroke-dashoffset:0;stroke-opacity:1"
     d="M 294.08791,303.89634 C 291.53151,301.13796 286.06956,288.02834 286.69498,286.15208 C 287.40236,284.02996 297.23455,294.19407 299.03511,298.90878 C 301.7413,305.99485 298.79011,308.97012 294.08789,303.89634 L 294.08791,303.89634 z"
     id="path2407"
     transform="scale(0.8,0.8)" />
  <path
     style="opacity:1;fill:#ff0505;fill-opacity:1;fill-rule:evenodd;stroke:none;stroke-width:0.44999999;stroke-linecap:round;stroke-linejoin:round;stroke-miterlimit:4;stroke-dasharray:none;stroke-dashoffset:0;stroke-opacity:1"
     d="M 400.46102,179.22442 C 396.52219,177.39891 396.21043,177.0363 397.96102,176.31667 C 400.31376,175.34952 414.5865,175.08114 416.87923,175.96094 C 419.40471,176.93005 418.7284,178.34428 414.99314,179.90498 C 410.22694,181.89643 405.7766,181.68802 400.46102,179.22442 z"
     id="path2409"
     transform="scale(0.8,0.8)" />
  <path
     style="opacity:1;fill:#ff0505;fill-opacity:1;fill-rule:evenodd;stroke:none;stroke-width:0.44999999;stroke-linecap:round;stroke-linejoin:round;stroke-miterlimit:4;stroke-dasharray:none;stroke-dashoffset:0;stroke-opacity:1"
     d="M 231.96102,210.48429 C 206.66102,198.49877 179.56119,186.02877 171.73917,182.77319 C 163.91716,179.51761 157.50465,176.45727 157.48917,175.97244 C 157.4737,175.48762 160.72352,175.32582 164.71102,175.6129 C 178.12416,176.57856 212.17836,189.51499 251.94648,208.75167 C 265.13847,215.13293 276.43356,220.35395 277.04664,220.35395 C 277.65971,220.35395 286.66627,216.25316 297.06118,211.24108 C 329.90721,195.40382 351.11651,186.58455 362.71102,183.94249 C 369.403,182.41757 364.26318,187.28872 350.40581,195.60445 C 340.00252,201.84741 280.4427,232.38908 278.81588,232.31505 C 278.34571,232.29364 257.26102,222.46981 231.96102,210.48429 z"
     id="path2411"
     transform="scale(0.8,0.8)" />
  <path
     style="opacity:1;fill:#ff0505;fill-opacity:1;fill-rule:evenodd;stroke:none;stroke-width:0.44999999;stroke-linecap:round;stroke-linejoin:round;stroke-miterlimit:4;stroke-dasharray:none;stroke-dashoffset:0;stroke-opacity:1"
     d="M 100.0378,580.99042 C 111.66096,576.66909 120.86859,569.62445 141.53484,549.24162 C 185.6822,505.69968 211.50415,470.78714 222.43992,439.85395 C 228.24316,423.4387 230.54025,410.00796 231.16251,388.85395 C 231.78029,367.85271 230.58354,351.50012 227.32973,336.48196 C 221.45493,309.36643 208.7934,283.36016 189.04856,257.85395 C 181.00404,247.46212 177.80685,243.88763 156.17754,221.10395 C 147.43181,211.89145 140.57661,204.35395 140.94376,204.35395 C 141.94889,204.35395 163.83459,219.73178 173.08872,226.94037 C 202.20635,249.62178 225.31246,282.32523 237.32234,317.85395 C 255.98719,373.07003 250.36135,435.41509 221.53435,492.81486 C 208.09508,519.57489 196.46997,535.93237 168.58502,567.31892 L 154.33892,583.35395 L 124.14998,583.30183 L 93.961019,583.24976 L 100.0378,580.99042 z"
     id="path2413"
     transform="scale(0.8,0.8)" />
  <path
     style="opacity:1;fill:#ff0505;fill-opacity:1;fill-rule:evenodd;stroke:none;stroke-width:0.44999999;stroke-linecap:round;stroke-linejoin:round;stroke-miterlimit:4;stroke-dasharray:none;stroke-dashoffset:0;stroke-opacity:1"
     d="M 410.31022,131.65831 C 343.65359,108.38937 309.07236,98.63468 265.81022,90.89767 C 230.93887,84.66126 183.09317,81.16897 161.31022,83.27013 C 140.42269,85.28491 132.30393,87.91402 96.31022,104.31916 C 72.09195,115.35731 62.14176,119.15689 51.87155,121.28846 C 37.12203,124.34969 27.02257,118.28327 22.9004,103.88642 C 20.09465,94.0872 19.23612,82.50062 18.61495,46.05089 L 17.98866,9.3008902 L 296.73075,9.3008902 L 575.47288,9.3008902 L 575.05332,37.55089 C 574.78825,55.40196 574.19898,67.14462 573.45252,69.4513 C 570.89399,77.3576 564.53795,80.81832 547.0179,83.84442 C 535.2719,85.87321 525.65688,89.10454 514.0424,94.92652 C 499.20886,102.36209 488.18911,110.61566 469.54379,128.25503 C 459.92459,137.35526 451.32442,144.86777 450.43228,144.94952 C 449.54014,145.03128 431.48522,139.05023 410.31022,131.65832 L 410.31022,131.65831 z"
     id="path2391"
     transform="scale(0.8,0.8)" />
</svg>
