/* XPM */
static char * rm_destination_xpm[] = {
"16 16 2 1",
" 	c white",
".	c #006e00",
" .............. ",
"................",
".....     ......",
"...  .....  ....",
"... ....... ....",
".. ......... ...",
".. ......... ...",
".. ....   .. ...",
".. ....  ... ...",
".. .... . .. ...",
"... ......  ....",
"...  .....  ....",
".....     .. ...",
"............. ..",
"................",
" .............. "};
