/* XPM */
static char * rm_hold_xpm[] = {
"16 16 2 1",
" 	c white",
".	c #000099",
" .............. ",
"................",
"................",
"....      ......",
"....       .....",
"....  ...  .....",
"....  ...  .....",
"....       .....",
"....      ......",
"....  ..........",
"....  ..........",
"....  ..........",
"....  ..........",
"................",
"................",
" .............. "};
