/* XPM */
static char * rm_left_xpm[] = {
"32 32 3 1",
" 	c yellow",
".	c white",
"X	c black",
"     ......................     ",
"    ..XXXXXXXXXXXXXXXXXXXX..    ",
"   ..X....................X..   ",
"   .X......................X.   ",
"   .X...XXX...XX..X..XXXX..X.   ",
"   .X..X...X..XX..X..X.....X.   ",
"   .X..X...X..X.X.X..XXX...X.   ",
"   .X..X...X..X.X.X..X.....X.   ",
"   .X..X...X..X..XX..X.....X.   ",
"   .X...XXX...X..XX..XXXX..X.   ",
"   .X......................X.   ",
"   .X......................X.   ",
"   .X..X.....X..X...X...X..X.   ",
"   .X..X.....X..X...X...X..X.   ",
"   .X...X.X.X..X.X...X.X...X.   ",
"   .X...X.X.X..XXX....X....X.   ",
"   .X....X.X..X...X...X....X.   ",
"   .X....X.X..X...X...X....X.   ",
"   .X......................X.   ",
"   .X......................X.   ",
"   .X.......XX.............X.   ",
"   .X.....XXX..............X.   ",
"   .X...XXXXXXXXXXXXXXXX...X.   ",
"   .X..XXXXXXXXXXXXXXXXX...X.   ",
"   .X...XXXXXXXXXXXXXXXX...X.   ",
"   .X.....XXX..............X.   ",
"   .X.......XX.............X.   ",
"   .X......................X.   ",
"   .X......................X.   ",
"   ..X....................X..   ",
"    ..XXXXXXXXXXXXXXXXXXXX..    ",
"     ......................     "};
