/* XPM */
static char * rm_up_xpm[] = {
"32 32 3 1",
" 	c yellow",
".	c white",
"X	c black",
"     ......................     ",
"    ..XXXXXXXXXXXXXXXXXXXX..    ",
"   ..X....................X..   ",
"   .X......................X.   ",
"   .X..........X...........X.   ",
"   .X.........XXX..........X.   ",
"   .X.........XXX..........X.   ",
"   .X........XXXXX.........X.   ",
"   .X........XXXXX.........X.   ",
"   .X.......XXXXXXX........X.   ",
"   .X.......X.XXX.X........X.   ",
"   .X.........XXX..........X.   ",
"   .X.........XXX..........X.   ",
"   .X.........XXX..........X.   ",
"   .X.........XXX..........X.   ",
"   .X.........XXX..........X.   ",
"   .X.........XXX..........X.   ",
"   .X.........XXX..........X.   ",
"   .X.........XXX..........X.   ",
"   .X.........XXX..........X.   ",
"   .X.........XXX..........X.   ",
"   .X.........XXX..........X.   ",
"   .X.........XXX..........X.   ",
"   .X.........XXX..........X.   ",
"   .X.........XXX..........X.   ",
"   .X.........XXX..........X.   ",
"   .X.........XXX..........X.   ",
"   .X......................X.   ",
"   .X......................X.   ",
"   ..X....................X..   ",
"    ..XXXXXXXXXXXXXXXXXXXX..    ",
"     ......................     "};
