/* XPM */
static char * up_xpm[] = {
"16 16 2 1",
" 	c white",
".	c #000099",
" .............. ",
"................",
".......  .......",
"......    ......",
".....      .....",
".......  .......",
".......  .......",
".......  .......",
".......  .......",
".......  .......",
".......  .......",
".......  .......",
".......  .......",
".......  .......",
"................",
" .............. "};
